<svg xmlns="http://www.w3.org/2000/svg" width="1024" height="1024" viewBox="0 0 1024 1024">
<g>
<path d="M 0.00 0.00 L 1024.00 0.00 L 1024.00 1024.00 L 0.00 1024.00 ZM 315.80 860.60 C322.31,862.35 324.56,862.27 331.84,859.99 C339.15,857.69 345.02,857.51 356.79,859.21 L 365.18 860.43 L 385.69 855.19 L 406.21 849.96 L 416.59 842.89 C422.30,839.00 428.91,833.67 431.28,831.03 C433.73,828.31 439.42,818.93 444.44,809.37 C449.31,800.09 456.59,787.44 460.62,781.26 C464.66,775.07 469.80,766.75 472.06,762.76 C474.31,758.77 477.25,754.15 478.59,752.50 C491.39,736.68 497.02,727.20 506.88,704.91 C510.63,696.43 514.67,687.60 515.85,685.28 C518.74,679.63 531.40,660.60 536.01,655.00 C538.04,652.53 543.37,645.60 547.85,639.61 C552.33,633.62 556.00,629.40 556.00,630.23 C556.00,633.23 537.95,674.17 527.60,694.65 C524.54,700.70 524.38,704.05 526.88,709.50 C529.70,715.65 544.45,735.60 552.52,744.20 C556.71,748.66 562.61,756.65 566.56,763.20 C576.13,779.07 589.30,799.75 592.92,804.59 C597.11,810.18 611.91,818.32 622.99,821.12 C634.09,823.92 643.44,823.39 655.00,819.28 C694.02,805.40 697.10,804.14 706.24,798.24 C711.33,794.94 718.67,790.66 722.54,788.72 C726.41,786.78 731.92,783.08 734.78,780.50 C740.82,775.08 751.88,760.62 757.75,750.49 C762.64,742.04 768.70,733.73 776.33,725.00 C787.80,711.88 793.01,698.02 792.99,680.64 C792.98,666.98 792.47,665.74 777.93,644.00 C768.68,630.16 765.63,626.57 749.49,610.50 C726.16,587.28 719.62,579.72 712.27,567.50 C708.97,562.00 700.17,548.21 692.73,536.86 C680.25,517.84 677.90,514.90 662.63,499.11 C648.27,484.26 645.88,481.32 644.59,476.98 C642.33,469.38 643.52,466.55 659.80,441.00 C665.58,431.92 674.07,418.79 678.67,411.82 C683.26,404.84 689.39,394.72 692.30,389.32 C699.69,375.56 706.92,364.43 717.50,350.50 C743.17,316.72 750.44,301.49 748.01,286.58 C746.44,276.92 745.19,275.36 711.00,240.09 C688.47,216.84 670.92,200.68 666.33,198.93 C664.98,198.42 660.19,197.74 655.69,197.42 C646.10,196.73 640.44,198.22 617.50,207.49 C574.98,224.67 570.95,227.96 555.30,258.45 C550.49,267.83 543.71,279.67 540.23,284.77 C533.64,294.43 530.53,300.65 529.49,306.21 C528.98,308.98 529.69,310.84 534.03,318.00 C541.05,329.60 550.24,348.00 549.01,348.00 C548.46,348.00 546.32,346.52 544.25,344.72 C542.19,342.92 538.26,339.66 535.52,337.47 C527.61,331.17 519.45,322.39 509.97,310.00 C505.13,303.67 497.57,294.36 493.17,289.31 C483.32,277.97 478.82,271.65 466.99,252.50 C461.89,244.25 453.78,231.43 448.97,224.00 C444.16,216.57 438.81,207.66 437.07,204.19 C429.22,188.52 418.11,174.60 409.31,169.44 C403.35,165.95 395.16,163.23 388.21,162.44 C376.06,161.07 364.89,164.25 338.00,176.76 C333.33,178.93 325.90,181.90 321.50,183.36 C309.49,187.35 304.41,190.75 288.96,205.14 C276.40,216.85 262.98,232.02 243.72,256.28 C233.48,269.19 226.29,290.67 227.20,305.62 C227.53,311.01 228.20,312.69 232.81,319.71 C235.68,324.09 239.79,331.24 241.92,335.59 C244.06,339.94 248.54,346.88 251.89,351.00 C262.14,363.65 266.57,370.05 273.72,382.57 C283.41,399.56 294.06,413.73 306.76,426.54 C319.78,439.68 327.04,449.90 335.83,467.47 C346.66,489.11 357.81,504.45 364.58,507.03 C368.17,508.40 373.80,508.24 379.57,506.60 C382.28,505.84 386.52,504.91 389.00,504.55 C391.48,504.19 396.42,503.06 400.00,502.02 C403.58,500.99 408.30,499.86 410.50,499.51 L 414.50 498.88 L 412.09 500.61 C410.76,501.56 402.44,505.99 393.59,510.44 C384.74,514.90 376.32,519.34 374.87,520.31 C370.55,523.21 363.79,532.67 355.78,547.05 C347.05,562.71 337.92,577.05 329.10,588.94 C325.69,593.54 319.09,603.47 314.43,611.00 C309.08,619.65 302.68,628.30 297.08,634.46 C292.21,639.83 286.25,647.36 283.86,651.18 C277.14,661.91 268.21,674.86 260.44,685.15 C249.78,699.27 243.21,709.36 239.16,717.84 C235.69,725.11 235.50,726.01 235.54,735.50 C235.57,743.86 236.01,746.57 238.17,752.00 C239.59,755.58 242.42,763.45 244.45,769.50 C248.61,781.87 253.09,790.57 266.85,813.00 C276.75,829.14 285.75,841.66 290.64,846.09 C295.33,850.35 310.76,859.24 315.80,860.60 ZM 409.24 778.31 C410.33,779.85 411.03,781.30 410.81,781.52 C409.47,782.86 399.48,770.36 388.41,753.50 C385.16,748.54 376.20,736.93 368.50,727.69 C353.54,709.73 344.84,702.37 335.07,699.41 C322.87,695.72 290.22,695.08 279.75,698.33 C277.14,699.14 275.00,699.49 275.00,699.11 C275.00,698.20 284.33,692.60 290.06,690.08 C297.02,687.02 305.48,685.06 316.50,683.94 C338.37,681.74 346.24,677.47 356.96,662.00 C359.06,658.97 364.10,652.36 368.18,647.31 C379.68,633.03 392.76,609.62 398.57,592.94 C404.74,575.20 410.45,565.44 430.32,538.65 C436.50,530.32 443.52,520.69 445.92,517.25 C448.33,513.81 450.71,511.00 451.23,511.00 C452.51,511.00 445.65,523.29 440.82,529.64 C438.68,532.47 433.64,541.02 429.64,548.64 C425.63,556.26 420.39,565.84 418.00,569.92 C415.60,573.99 410.77,583.89 407.27,591.91 C400.72,606.91 394.33,619.35 382.16,640.82 C378.32,647.60 374.17,655.70 372.95,658.82 C371.73,661.94 369.67,666.08 368.39,668.02 C367.10,669.95 365.31,675.10 364.41,679.46 C361.40,694.02 364.42,704.09 376.70,720.50 C382.89,728.77 393.57,747.61 403.33,767.50 C405.50,771.90 408.15,776.76 409.24,778.31 ZM 442.00 449.59 C442.00,450.66 440.76,449.49 435.29,443.25 C428.79,435.83 421.86,426.78 409.14,409.11 C397.28,392.62 390.44,383.68 383.09,375.04 C379.56,370.89 374.05,363.45 370.83,358.50 C367.62,353.55 362.73,346.12 359.97,342.00 C357.20,337.88 351.98,330.00 348.35,324.50 C344.72,319.00 337.61,309.10 332.54,302.50 C327.48,295.90 321.63,287.80 319.55,284.50 C317.46,281.20 313.79,276.18 311.39,273.35 C305.96,266.96 300.87,265.39 288.79,266.40 C280.35,267.10 280.35,267.10 260.75,274.77 C253.74,277.51 248.00,279.42 248.00,279.00 C248.00,277.11 273.39,262.02 288.13,255.16 C299.76,249.74 305.20,245.48 309.98,238.03 C311.70,235.35 315.67,231.24 318.80,228.90 C321.94,226.56 329.45,219.86 335.50,214.01 C346.36,203.53 352.69,198.35 353.57,199.23 C353.82,199.48 351.40,202.57 348.19,206.09 C344.99,209.62 340.41,215.20 338.03,218.50 C335.64,221.80 331.13,227.20 328.00,230.50 C321.05,237.83 319.70,240.37 317.54,250.12 C315.31,260.23 316.21,263.36 325.43,277.43 C329.43,283.52 335.26,293.24 338.39,299.04 C343.51,308.50 345.89,311.47 361.79,328.19 C377.49,344.69 380.37,348.27 387.16,359.65 C391.38,366.72 396.00,375.33 397.44,378.79 C400.70,386.63 407.90,399.71 412.33,405.85 C414.18,408.41 420.07,417.36 425.43,425.75 C430.78,434.14 436.70,442.85 438.58,445.10 C440.46,447.35 442.00,449.37 442.00,449.59 ZM 639.86 791.53 C634.20,796.64 632.00,798.34 632.00,797.62 C632.00,797.24 634.92,792.95 638.49,788.09 C643.99,780.59 651.00,768.52 651.00,766.54 C651.00,766.22 652.91,762.03 655.25,757.23 L 659.50 748.50 L 659.50 723.50 L 652.50 712.71 C648.65,706.78 643.60,699.27 641.28,696.02 C626.57,675.44 618.78,663.98 611.86,652.75 C607.54,645.74 601.17,636.06 597.70,631.25 C589.32,619.63 589.00,619.08 591.68,621.00 C598.40,625.80 611.35,637.65 613.84,641.27 C615.43,643.60 618.78,649.57 621.28,654.55 C629.18,670.30 658.58,704.28 671.42,712.49 C681.20,718.75 689.98,720.51 699.00,718.03 C700.92,717.50 706.51,716.61 711.41,716.06 C718.24,715.29 721.16,714.46 723.91,712.54 C725.88,711.15 729.68,708.48 732.36,706.59 C735.98,704.04 739.78,702.59 747.31,700.88 C753.49,699.48 760.71,696.95 765.95,694.35 L 774.50 690.10 L 769.63 694.57 C766.74,697.23 760.46,701.11 754.13,704.15 C730.04,715.73 724.38,718.53 722.00,720.07 C718.95,722.04 704.81,727.93 700.00,729.24 C694.47,730.74 680.92,739.08 676.23,743.87 C673.88,746.27 670.08,751.44 667.79,755.37 C661.58,766.03 646.51,785.53 639.86,791.53 ZM 588.20 324.25 C580.26,335.11 573.59,344.00 573.38,344.00 C572.14,344.00 576.48,335.40 582.96,325.05 C585.56,320.90 590.75,311.88 594.48,305.00 C598.22,298.12 604.76,287.10 609.01,280.50 C617.29,267.66 621.20,260.28 628.03,244.60 C632.38,234.62 640.63,222.45 647.37,216.05 C649.37,214.16 651.00,212.89 651.00,213.23 C651.00,213.57 648.50,217.82 645.44,222.68 C639.51,232.08 625.92,259.23 619.18,275.11 C612.90,289.93 610.46,293.80 588.20,324.25 Z" fill="rgb(1,1,1)"/>
<path d="M 315.80 860.60 C310.76,859.24 295.33,850.35 290.64,846.09 C285.75,841.66 276.75,829.14 266.85,813.00 C253.09,790.57 248.61,781.87 244.45,769.50 C242.42,763.45 239.59,755.58 238.17,752.00 C236.01,746.57 235.57,743.86 235.54,735.50 C235.50,726.01 235.69,725.11 239.16,717.84 C243.21,709.36 249.78,699.27 260.44,685.15 C268.21,674.86 277.14,661.91 283.86,651.18 C286.25,647.36 292.21,639.83 297.08,634.46 C302.68,628.30 309.08,619.65 314.43,611.00 C319.09,603.47 325.69,593.54 329.10,588.94 C337.92,577.05 347.05,562.71 355.78,547.05 C363.79,532.67 370.55,523.21 374.87,520.31 C376.32,519.34 384.74,514.90 393.59,510.44 C402.44,505.99 410.76,501.56 412.09,500.61 L 414.50 498.88 L 410.50 499.51 C408.30,499.86 403.58,500.99 400.00,502.02 C396.42,503.06 391.48,504.19 389.00,504.55 C386.52,504.91 382.28,505.84 379.57,506.60 C373.80,508.24 368.17,508.40 364.58,507.03 C357.81,504.45 346.66,489.11 335.83,467.47 C327.04,449.90 319.78,439.68 306.76,426.54 C294.06,413.73 283.41,399.56 273.72,382.57 C266.57,370.05 262.14,363.65 251.89,351.00 C248.54,346.88 244.06,339.94 241.92,335.59 C239.79,331.24 235.68,324.09 232.81,319.71 C228.20,312.69 227.53,311.01 227.20,305.62 C226.29,290.67 233.48,269.19 243.72,256.28 C262.98,232.02 276.40,216.85 288.96,205.14 C304.41,190.75 309.49,187.35 321.50,183.36 C325.90,181.90 333.33,178.93 338.00,176.76 C364.89,164.25 376.06,161.07 388.21,162.44 C395.16,163.23 403.35,165.95 409.31,169.44 C418.11,174.60 429.22,188.52 437.07,204.19 C438.81,207.66 444.16,216.57 448.97,224.00 C453.78,231.43 461.89,244.25 466.99,252.50 C478.82,271.65 483.32,277.97 493.17,289.31 C497.57,294.36 505.13,303.67 509.97,310.00 C519.45,322.39 527.61,331.17 535.52,337.47 C538.26,339.66 542.19,342.92 544.25,344.72 C546.32,346.52 548.46,348.00 549.01,348.00 C550.24,348.00 541.05,329.60 534.03,318.00 C529.69,310.84 528.98,308.98 529.49,306.21 C530.53,300.65 533.64,294.43 540.23,284.77 C543.71,279.67 550.49,267.83 555.30,258.45 C570.95,227.96 574.98,224.67 617.50,207.49 C640.44,198.22 646.10,196.73 655.69,197.42 C660.19,197.74 664.98,198.42 666.33,198.93 C670.92,200.68 688.47,216.84 711.00,240.09 C745.19,275.36 746.44,276.92 748.01,286.58 C750.44,301.49 743.17,316.72 717.50,350.50 C706.92,364.43 699.69,375.56 692.30,389.32 C689.39,394.72 683.26,404.84 678.67,411.82 C674.07,418.79 665.58,431.92 659.80,441.00 C643.52,466.55 642.33,469.38 644.59,476.98 C645.88,481.32 648.27,484.26 662.63,499.11 C677.90,514.90 680.25,517.84 692.73,536.86 C700.17,548.21 708.97,562.00 712.27,567.50 C719.62,579.72 726.16,587.28 749.49,610.50 C765.63,626.57 768.68,630.16 777.93,644.00 C792.47,665.74 792.98,666.98 792.99,680.64 C793.01,698.02 787.80,711.88 776.33,725.00 C768.70,733.73 762.64,742.04 757.75,750.49 C751.88,760.62 740.82,775.08 734.78,780.50 C731.92,783.08 726.41,786.78 722.54,788.72 C718.67,790.66 711.33,794.94 706.24,798.24 C697.10,804.14 694.02,805.40 655.00,819.28 C643.44,823.39 634.09,823.92 622.99,821.12 C611.91,818.32 597.11,810.18 592.92,804.59 C589.30,799.75 576.13,779.07 566.56,763.20 C562.61,756.65 556.71,748.66 552.52,744.20 C544.45,735.60 529.70,715.65 526.88,709.50 C524.38,704.05 524.54,700.70 527.60,694.65 C537.95,674.17 556.00,633.23 556.00,630.23 C556.00,629.40 552.33,633.62 547.85,639.61 C543.37,645.60 538.04,652.53 536.01,655.00 C531.40,660.60 518.74,679.63 515.85,685.28 C514.67,687.60 510.63,696.43 506.88,704.91 C497.02,727.20 491.39,736.68 478.59,752.50 C477.25,754.15 474.31,758.77 472.06,762.76 C469.80,766.75 464.66,775.07 460.62,781.26 C456.59,787.44 449.31,800.09 444.44,809.37 C439.42,818.93 433.73,828.31 431.28,831.03 C428.91,833.67 422.30,839.00 416.59,842.89 L 406.21 849.96 L 385.69 855.19 L 365.18 860.43 L 356.79 859.21 C345.02,857.51 339.15,857.69 331.84,859.99 C324.56,862.27 322.31,862.35 315.80,860.60 ZM 639.86 791.53 C646.51,785.53 661.58,766.03 667.79,755.37 C670.08,751.44 673.88,746.27 676.23,743.87 C680.92,739.08 694.47,730.74 700.00,729.24 C704.81,727.93 718.95,722.04 722.00,720.07 C724.38,718.53 730.04,715.73 754.13,704.15 C760.46,701.11 766.74,697.23 769.63,694.57 L 774.50 690.10 L 765.95 694.35 C760.71,696.95 753.49,699.48 747.31,700.88 C739.78,702.59 735.98,704.04 732.36,706.59 C729.68,708.48 725.88,711.15 723.91,712.54 C721.16,714.46 718.24,715.29 711.41,716.06 C706.51,716.61 700.92,717.50 699.00,718.03 C689.98,720.51 681.20,718.75 671.42,712.49 C658.58,704.28 629.18,670.30 621.28,654.55 C618.78,649.57 615.43,643.60 613.84,641.27 C611.35,637.65 598.40,625.80 591.68,621.00 C589.00,619.08 589.32,619.63 597.70,631.25 C601.17,636.06 607.54,645.74 611.86,652.75 C618.78,663.98 626.57,675.44 641.28,696.02 C643.60,699.27 648.65,706.78 652.50,712.71 L 659.50 723.50 L 659.50 736.00 L 659.50 748.50 L 655.25 757.23 C652.91,762.03 651.00,766.22 651.00,766.54 C651.00,768.52 643.99,780.59 638.49,788.09 C634.92,792.95 632.00,797.24 632.00,797.62 C632.00,798.34 634.20,796.64 639.86,791.53 ZM 409.24 778.31 C408.15,776.76 405.50,771.90 403.33,767.50 C393.57,747.61 382.89,728.77 376.70,720.50 C364.42,704.09 361.40,694.02 364.41,679.46 C365.31,675.10 367.10,669.95 368.39,668.02 C369.67,666.08 371.73,661.94 372.95,658.82 C374.17,655.70 378.32,647.60 382.16,640.82 C394.33,619.35 400.72,606.91 407.27,591.91 C410.77,583.89 415.60,573.99 418.00,569.92 C420.39,565.84 425.63,556.26 429.64,548.64 C433.64,541.02 438.68,532.47 440.82,529.64 C445.65,523.29 452.51,511.00 451.23,511.00 C450.71,511.00 448.33,513.81 445.92,517.25 C443.52,520.69 436.50,530.32 430.32,538.65 C410.45,565.44 404.74,575.20 398.57,592.94 C392.76,609.62 379.68,633.03 368.18,647.31 C364.10,652.36 359.06,658.97 356.96,662.00 C346.24,677.47 338.37,681.74 316.50,683.94 C305.48,685.06 297.02,687.02 290.06,690.08 C284.33,692.60 275.00,698.20 275.00,699.11 C275.00,699.49 277.14,699.14 279.75,698.33 C290.22,695.08 322.87,695.72 335.07,699.41 C344.84,702.37 353.54,709.73 368.50,727.69 C376.20,736.93 385.16,748.54 388.41,753.50 C399.48,770.36 409.47,782.86 410.81,781.52 C411.03,781.30 410.33,779.85 409.24,778.31 ZM 442.00 449.59 C442.00,449.37 440.46,447.35 438.58,445.10 C436.70,442.85 430.78,434.14 425.43,425.75 C420.07,417.36 414.18,408.41 412.33,405.85 C407.90,399.71 400.70,386.63 397.44,378.79 C396.00,375.33 391.38,366.72 387.16,359.65 C380.37,348.27 377.49,344.69 361.79,328.19 C345.89,311.47 343.51,308.50 338.39,299.04 C335.26,293.24 329.43,283.52 325.43,277.43 C316.21,263.36 315.31,260.23 317.54,250.12 C319.70,240.37 321.05,237.83 328.00,230.50 C331.13,227.20 335.64,221.80 338.03,218.50 C340.41,215.20 344.99,209.62 348.19,206.09 C351.40,202.57 353.82,199.48 353.57,199.23 C352.69,198.35 346.36,203.53 335.50,214.01 C329.45,219.86 321.94,226.56 318.80,228.90 C315.67,231.24 311.70,235.35 309.98,238.03 C305.20,245.48 299.76,249.74 288.13,255.16 C273.39,262.02 248.00,277.11 248.00,279.00 C248.00,279.42 253.74,277.51 260.75,274.77 C280.35,267.10 280.35,267.10 288.79,266.40 C300.87,265.39 305.96,266.96 311.39,273.35 C313.79,276.18 317.46,281.20 319.55,284.50 C321.63,287.80 327.48,295.90 332.54,302.50 C337.61,309.10 344.72,319.00 348.35,324.50 C351.98,330.00 357.20,337.88 359.97,342.00 C362.73,346.12 367.62,353.55 370.83,358.50 C374.05,363.45 379.56,370.89 383.09,375.04 C390.44,383.68 397.28,392.62 409.14,409.11 C421.86,426.78 428.79,435.83 435.29,443.25 C440.76,449.49 442.00,450.66 442.00,449.59 ZM 588.20 324.25 C610.46,293.80 612.90,289.93 619.18,275.11 C625.92,259.23 639.51,232.08 645.44,222.68 C648.50,217.82 651.00,213.57 651.00,213.23 C651.00,212.89 649.37,214.16 647.37,216.05 C640.63,222.45 632.38,234.62 628.03,244.60 C621.20,260.28 617.29,267.66 609.01,280.50 C604.76,287.10 598.22,298.12 594.48,305.00 C590.75,311.88 585.56,320.90 582.96,325.05 C576.48,335.40 572.14,344.00 573.38,344.00 C573.59,344.00 580.26,335.11 588.20,324.25 Z" fill="rgb(254,254,253)"/>
</g>
</svg>